<svg xmlns="http://www.w3.org/2000/svg" width="960" height="540" viewBox="0 0 960 540">
  <defs>
    <linearGradient id="ic-bg" x1="0" y1="0" x2="1" y2="1">
      <stop offset="0%" stop-color="#0a0f14"/>
      <stop offset="100%" stop-color="#0f1a2a"/>
    </linearGradient>
    <linearGradient id="ic-accent" x1="0" y1="0" x2="1" y2="0">
      <stop offset="0%" stop-color="#06b6d4"/>
      <stop offset="100%" stop-color="#22d3ee"/>
    </linearGradient>
  </defs>

  <!-- Background -->
  <rect width="960" height="540" fill="url(#ic-bg)"/>
  <circle cx="750" cy="160" r="220" fill="#3b82f6" opacity="0.07"/>

  <!-- Right side: forum UI -->
  <rect x="510" y="60" width="400" height="420" rx="18" fill="#0f1623" stroke="#1e2d44" stroke-width="1.5"/>

  <!-- Forum header -->
  <rect x="510" y="60" width="400" height="52" rx="18" fill="#0e1e33"/>
  <rect x="510" y="92" width="400" height="20" fill="#0e1e33"/>
  <text x="534" y="90" fill="#93c5fd" font-family="system-ui, sans-serif" font-size="15" font-weight="700">IdeaClinic Forum</text>
  <circle cx="876" cy="86" r="7" fill="#22c55e"/>
  <text x="860" y="88" text-anchor="end" fill="#4ade80" font-family="monospace" font-size="11">LIVE</text>

  <!-- Post card 1 -->
  <rect x="524" y="130" width="372" height="80" rx="10" fill="#111827" stroke="#1e3a5f" stroke-width="1"/>
  <circle cx="548" cy="156" r="14" fill="#1d4ed8" opacity="0.85"/>
  <text x="548" y="160" text-anchor="middle" fill="#bfdbfe" font-family="system-ui" font-size="11" font-weight="600">VP</text>
  <text x="572" y="153" fill="#e2e8f0" font-family="system-ui, sans-serif" font-size="14" font-weight="600">DEI Proposal: New Research Grant</text>
  <text x="572" y="170" fill="#475569" font-family="system-ui, sans-serif" font-size="12">2 min ago - Innovations</text>
  <rect x="534" y="186" width="48" height="20" rx="4" fill="#172554"/>
  <text x="558" y="200" text-anchor="middle" fill="#60a5fa" font-family="monospace" font-size="11">? 24</text>
  <rect x="590" y="186" width="55" height="20" rx="4" fill="#0f1623"/>
  <text x="617" y="200" text-anchor="middle" fill="#64748b" font-family="monospace" font-size="11">?? 12</text>

  <!-- Post card 2 -->
  <rect x="524" y="224" width="372" height="80" rx="10" fill="#111827" stroke="#1e3a5f" stroke-width="1"/>
  <circle cx="548" cy="250" r="14" fill="#7c3aed" opacity="0.85"/>
  <text x="548" y="254" text-anchor="middle" fill="#ddd6fe" font-family="system-ui" font-size="11" font-weight="600">SM</text>
  <text x="572" y="247" fill="#e2e8f0" font-family="system-ui, sans-serif" font-size="14" font-weight="600">Startup Pitch: EduTech Platform</text>
  <text x="572" y="264" fill="#475569" font-family="system-ui, sans-serif" font-size="12">1 hour ago - Startups</text>
  <rect x="534" y="280" width="48" height="20" rx="4" fill="#1e1b4b"/>
  <text x="558" y="294" text-anchor="middle" fill="#a78bfa" font-family="monospace" font-size="11">? 18</text>
  <rect x="590" y="280" width="55" height="20" rx="4" fill="#0f1623"/>
  <text x="617" y="294" text-anchor="middle" fill="#64748b" font-family="monospace" font-size="11">?? 7</text>

  <!-- Post card 3 -->
  <rect x="524" y="318" width="372" height="80" rx="10" fill="#111827" stroke="#1e3a5f" stroke-width="1"/>
  <circle cx="548" cy="344" r="14" fill="#059669" opacity="0.85"/>
  <text x="548" y="348" text-anchor="middle" fill="#a7f3d0" font-family="system-ui" font-size="11" font-weight="600">AK</text>
  <text x="572" y="341" fill="#e2e8f0" font-family="system-ui, sans-serif" font-size="14" font-weight="600">Research Collaboration Request</text>
  <text x="572" y="358" fill="#475569" font-family="system-ui, sans-serif" font-size="12">3 hours ago - Research</text>
  <rect x="534" y="374" width="48" height="20" rx="4" fill="#052e16"/>
  <text x="558" y="388" text-anchor="middle" fill="#4ade80" font-family="monospace" font-size="11">? 31</text>

  <!-- Search bar -->
  <rect x="524" y="414" width="372" height="36" rx="18" fill="#1a2535" stroke="#1e3a5f" stroke-width="1"/>
  <text x="610" y="435" fill="#475569" font-family="system-ui, sans-serif" font-size="13">Search forum...</text>
  <text x="876" y="435" text-anchor="middle" fill="#60a5fa" font-family="system-ui" font-size="14">?K</text>

  <!-- Left side -->
  <text x="60" y="165" fill="#60a5fa" font-family="monospace" font-size="13" opacity="0.65">// community forum</text>

  <text x="60" y="228" fill="#f8fafc" font-family="system-ui, sans-serif" font-size="52" font-weight="700">IdeaClinic</text>
  <text x="60" y="286" fill="#f8fafc" font-family="system-ui, sans-serif" font-size="52" font-weight="700">Forum</text>

  <rect x="60" y="304" width="155" height="3" rx="2" fill="url(#ic-accent)"/>

  <text x="60" y="348" fill="#94a3b8" font-family="system-ui, sans-serif" font-size="17">DEI forum platform - SRMIST</text>

  <!-- Stats -->
  <text x="60" y="405" fill="#60a5fa" font-family="system-ui, sans-serif" font-size="30" font-weight="700">500+</text>
  <text x="60" y="422" fill="#64748b" font-family="monospace" font-size="10">MEMBERS</text>
  <text x="165" y="405" fill="#60a5fa" font-family="system-ui, sans-serif" font-size="30" font-weight="700">RT</text>
  <text x="165" y="422" fill="#64748b" font-family="monospace" font-size="10">REAL-TIME</text>
  <text x="240" y="405" fill="#60a5fa" font-family="system-ui, sans-serif" font-size="30" font-weight="700">Full</text>
  <text x="240" y="422" fill="#64748b" font-family="monospace" font-size="10">STACK</text>

  <!-- Tech badges -->
  <rect x="60" y="448" width="80" height="28" rx="14" fill="#172554" stroke="#3b82f6" stroke-width="1"/>
  <text x="100" y="466" text-anchor="middle" fill="#93c5fd" font-family="monospace" font-size="12" font-weight="600">Next.js</text>

  <rect x="152" y="448" width="90" height="28" rx="14" fill="#042f2e" stroke="#14b8a6" stroke-width="1"/>
  <text x="197" y="466" text-anchor="middle" fill="#5eead4" font-family="monospace" font-size="12" font-weight="600">Supabase</text>

  <rect x="254" y="448" width="88" height="28" rx="14" fill="#1e1b4b" stroke="#8b5cf6" stroke-width="1"/>
  <text x="298" y="466" text-anchor="middle" fill="#c4b5fd" font-family="monospace" font-size="12" font-weight="600">Real-time</text>
</svg>
